<?xml version="1.0" standalone="yes"?>

<svg version="1.1" viewBox="0.0 0.0 100.0 40.0" fill="none" stroke="none" stroke-linecap="square" stroke-miterlimit="10" xmlns="http://www.w3.org/2000/svg" xmlns:xlink="http://www.w3.org/1999/xlink"><clipPath id="p.0"><path d="m0 0l100.0 0l0 40.0l-100.0 0l0 -40.0z" clip-rule="nonzero"></path></clipPath><g clip-path="url(#p.0)"><path fill="#000000" fill-opacity="0.0" d="m0 0l100.0 0l0 40.0l-100.0 0z" fill-rule="evenodd"></path><path fill="#000000" fill-opacity="0.0" d="m0.005249344 -0.015748031l100.0 0l0 40.0l-100.0 0z" fill-rule="evenodd"></path><path fill="#ffffff" d="m23.997437 31.70425l-4.828125 0l0 -13.21875l0.046875 -2.171875l0.078125 -2.374999q-1.203125 1.203125 -1.671875 1.578125l-2.625 2.109374l-2.328125 -2.906249l7.359375 -5.859375l3.96875 0l0 22.84375zm21.40625 -6.34375q0 3.09375 -2.234375 4.875q-2.21875 1.7812538 -6.1875 1.7812538q-3.65625 0 -6.46875 -1.3750038l0 -4.5q2.3125 1.03125 3.90625 1.453125q1.609375 0.421875 2.9375 0.421875q1.59375 0 2.4375 -0.609375q0.859375 -0.609375 0.859375 -1.8125q0 -0.671875 -0.375 -1.1875q-0.375 -0.53125 -1.109375 -1.015625q-0.71875 -0.484375 -2.953125 -1.546875q-2.09375 -0.984375 -3.140625 -1.890625q-1.046875 -0.90625 -1.671875 -2.109375q-0.625 -1.203125 -0.625 -2.812499q0 -3.03125 2.046875 -4.765625q2.0625 -1.734375 5.6875 -1.734375q1.78125 0 3.390625 0.421875q1.625 0.421875 3.390625 1.1875l-1.5625 3.765625q-1.828125 -0.75 -3.03125 -1.046875q-1.1875 -0.296875 -2.34375 -0.296875q-1.375 0 -2.109375 0.640625q-0.734375 0.640625 -0.734375 1.671875q0 0.640625 0.296875 1.124999q0.296875 0.46875 0.9375 0.921875q0.65625 0.4375 3.078125 1.59375q3.203125 1.53125 4.390625 3.078125q1.1875 1.53125 1.1875 3.765625zm3.5625 -15.640624q0 -2.328125 2.59375 -2.328125q2.59375 0 2.59375 2.328125q0 1.109375 -0.65625 1.734375q-0.640625 0.609375 -1.9375 0.609375q-2.59375 0 -2.59375 -2.34375zm4.96875 21.984375l-4.765625 0l0 -17.46875l4.765625 0l0 17.46875zm12.359375 -3.484375q1.25 0 3.0 -0.546875l0 3.546875q-1.78125 0.7968788 -4.375 0.7968788q-2.859375 0 -4.171875 -1.4375038q-1.296875 -1.453125 -1.296875 -4.34375l0 -8.421875l-2.28125 0l0 -2.015624l2.625 -1.59375l1.375 -3.6875l3.046875 0l0 3.71875l4.890625 0l0 3.578124l-4.890625 0l0 8.421875q0 1.015625 0.5625 1.5q0.578125 0.484375 1.515625 0.484375zm13.765625 -10.921875q-1.515625 0 -2.375 0.96875q-0.859375 0.953125 -0.984375 2.71875l6.6875 0q-0.03125 -1.765625 -0.921875 -2.71875q-0.890625 -0.96875 -2.40625 -0.96875zm0.671875 14.718754q-4.21875 0 -6.59375 -2.3281288q-2.375 -2.328125 -2.375 -6.59375q0 -4.390625 2.1875 -6.78125q2.203125 -2.406249 6.078125 -2.406249q3.703125 0 5.765625 2.109374q2.0625 2.109375 2.0625 5.828125l0 2.3125l-11.265625 0q0.078125 2.03125 1.203125 3.171875q1.125 1.140625 3.15625 1.140625q1.578125 0 2.984375 -0.328125q1.40625 -0.328125 2.9375 -1.046875l0 3.6875q-1.25 0.625 -2.671875 0.921875q-1.421875 0.3125038 -3.46875 0.3125038z" fill-rule="nonzero"></path></g></svg>

