<?xml version="1.0" standalone="yes"?>

<svg version="1.1" viewBox="0.0 0.0 267.5800524934383 100.0" fill="none" stroke="none" stroke-linecap="square" stroke-miterlimit="10" xmlns="http://www.w3.org/2000/svg" xmlns:xlink="http://www.w3.org/1999/xlink"><clipPath id="p.0"><path d="m0 0l267.58005 0l0 100.0l-267.58005 0l0 -100.0z" clip-rule="nonzero"></path></clipPath><g clip-path="url(#p.0)"><path fill="#000000" fill-opacity="0.0" d="m0 0l267.58005 0l0 100.0l-267.58005 0z" fill-rule="evenodd"></path><path fill="#000000" fill-opacity="0.0" d="m-16.49596 0l305.5118 0l0 100.0l-305.5118 0z" fill-rule="evenodd"></path><path fill="#ff0000" d="m24.37904 11.020622l0 84.859375l-18.6875 0l0 -66.9375l-6.78125 0l0 -17.921875l25.46875 0zm74.62576 13.4375q-12.296875 -6.78125 -21.375 -6.78125q-6.15625 0 -9.546875 2.4375q-3.390625 2.421875 -3.390625 7.28125q0 4.484375 4.921875 7.875q4.9375 3.390625 13.125 6.46875q6.65625 2.421875 11.390625 5.5625q4.75 3.140625 7.875 8.640625q3.140625 5.5 3.140625 13.953125q0 7.296875 -3.78125 13.515625q-3.765625 6.203125 -11.0625 9.859375q-7.296875 3.640625 -17.40625 3.640625q-8.453125 0 -16.781246 -2.5q-8.3125 -2.5 -15.484375 -7.625l8.1875 -14.453125q4.875 3.578125 11.140625 5.890625q6.281246 2.296875 11.265621 2.296875q5.890625 0 10.234375 -2.5q4.359375 -2.5 4.359375 -8.125q0 -7.296875 -13.703125 -12.671875q-8.0625 -3.203125 -13.437496 -6.140625q-5.375 -2.953125 -9.28125 -8.453125q-3.90625 -5.5 -3.90625 -13.828125q0 -12.15625 8.0 -19.578125q8.0 -7.421875 21.312496 -8.0625q10.5 0 17.53125 2.375q7.046875 2.359375 13.703125 6.71875l-7.03125 14.203125z" fill-rule="nonzero"></path><path fill="#ffff00" d="m138.30069 39.942497l0 55.9375l-17.921883 0l0 -55.9375l17.921883 0zm-18.640633 -19.40625q0 -3.828125 3.0 -6.453125q3.015625 -2.625 6.8593826 -2.625q3.71875 0 6.65625 2.625q2.9375 2.625 2.9375 6.453125q0 3.84375 -2.9375 6.40625q-2.9375 2.5625 -6.65625 2.5625q-3.8437576 0 -6.8593826 -2.5625q-3.0 -2.5625 -3.0 -6.40625zm60.242638 -5.171875l0 24.328125l13.5625 0l0 13.953125l-13.5625 0l0 42.234375l-17.921875 0l0 -42.234375l-8.703125 0l0 -13.953125l8.703125 0l0 -24.328125l17.921875 0zm55.16638 66.8125q5.375 0 11.125 -3.703125l7.9375 13.3125q-4.609375 2.5625 -9.734375 4.09375q-5.109375 1.53125 -9.71875 1.53125q-9.984375 0 -17.21875 -3.765625q-7.234375 -3.78125 -10.953125 -10.625q-3.703125 -6.859375 -3.703125 -15.6875q0 -8.1875 4.28125 -15.09375q4.296875 -6.921875 11.71875 -10.953125q7.421875 -4.03125 16.265625 -4.03125q12.03125 0 19.765625 7.046875q7.7499847 7.03125 10.04686 20.09375l-40.95311 13.046875q4.09375 4.734375 11.140625 4.734375zm-1.40625 -30.96875q-6.015625 0 -9.609375 4.09375q-3.578125 4.09375 -3.578125 11.015625l0 1.140625l24.578125 -8.3125q-2.6875 -7.9375 -11.390625 -7.9375z" fill-rule="nonzero"></path></g></svg>

